<svg width="80" height="80" viewBox="0 0 80 80" fill="none" xmlns="http://www.w3.org/2000/svg">
<g filter="url(#filter0_d_436_51)">
<rect x="4" width="72" height="72" rx="21" fill="#F5F5FF"/>
<rect x="4.3885" y="0.3885" width="71.223" height="71.223" rx="20.6115" stroke="#419CF1" stroke-width="0.777"/>
</g>
<path d="M39.146 51.504C36.794 51.504 34.54 51.196 32.384 50.58C30.228 49.936 28.492 49.11 27.176 48.102L29.486 42.978C30.746 43.874 32.23 44.616 33.938 45.204C35.674 45.764 37.424 46.044 39.188 46.044C40.532 46.044 41.61 45.918 42.422 45.666C43.262 45.386 43.878 45.008 44.27 44.532C44.662 44.056 44.858 43.51 44.858 42.894C44.858 42.11 44.55 41.494 43.934 41.046C43.318 40.57 42.506 40.192 41.498 39.912C40.49 39.604 39.37 39.324 38.138 39.072C36.934 38.792 35.716 38.456 34.484 38.064C33.28 37.672 32.174 37.168 31.166 36.552C30.158 35.936 29.332 35.124 28.688 34.116C28.072 33.108 27.764 31.82 27.764 30.252C27.764 28.572 28.212 27.046 29.108 25.674C30.032 24.274 31.404 23.168 33.224 22.356C35.072 21.516 37.382 21.096 40.154 21.096C42.002 21.096 43.822 21.32 45.614 21.768C47.406 22.188 48.988 22.832 50.36 23.7L48.26 28.866C46.888 28.082 45.516 27.508 44.144 27.144C42.772 26.752 41.428 26.556 40.112 26.556C38.796 26.556 37.718 26.71 36.878 27.018C36.038 27.326 35.436 27.732 35.072 28.236C34.708 28.712 34.526 29.272 34.526 29.916C34.526 30.672 34.834 31.288 35.45 31.764C36.066 32.212 36.878 32.576 37.886 32.856C38.894 33.136 40 33.416 41.204 33.696C42.436 33.976 43.654 34.298 44.858 34.662C46.09 35.026 47.21 35.516 48.218 36.132C49.226 36.748 50.038 37.56 50.654 38.568C51.298 39.576 51.62 40.85 51.62 42.39C51.62 44.042 51.158 45.554 50.234 46.926C49.31 48.298 47.924 49.404 46.076 50.244C44.256 51.084 41.946 51.504 39.146 51.504Z" fill="#419CF1"/>
<defs>
<filter id="filter0_d_436_51" x="0" y="0" width="80" height="80" filterUnits="userSpaceOnUse" color-interpolation-filters="sRGB">
<feFlood flood-opacity="0" result="BackgroundImageFix"/>
<feColorMatrix in="SourceAlpha" type="matrix" values="0 0 0 0 0 0 0 0 0 0 0 0 0 0 0 0 0 0 127 0" result="hardAlpha"/>
<feOffset dy="4"/>
<feGaussianBlur stdDeviation="2"/>
<feComposite in2="hardAlpha" operator="out"/>
<feColorMatrix type="matrix" values="0 0 0 0 0 0 0 0 0 0 0 0 0 0 0 0 0 0 0.25 0"/>
<feBlend mode="normal" in2="BackgroundImageFix" result="effect1_dropShadow_436_51"/>
<feBlend mode="normal" in="SourceGraphic" in2="effect1_dropShadow_436_51" result="shape"/>
</filter>
</defs>
</svg>
