<svg width="197" height="70" viewBox="0 0 197 70" fill="none" xmlns="http://www.w3.org/2000/svg">
<g clip-path="url(#clip0_6_118)">
<path d="M44.9346 50.9683L58.6608 20.1723H65.6999L79.4702 50.9683H71.9911L60.7286 23.7798H63.5442L52.2376 50.9683H44.9346ZM51.7977 44.3692L53.6895 38.9579H69.5274L71.4632 44.3692H51.7977ZM92.1292 51.3203C89.9001 51.3203 87.891 50.8217 86.1019 49.8245C84.3128 48.798 82.8903 47.3755 81.8345 45.557C80.8079 43.7386 80.2947 41.5975 80.2947 39.1339C80.2947 36.6408 80.8079 34.4851 81.8345 32.6667C82.8903 30.8482 84.3128 29.4404 86.1019 28.4432C87.891 27.446 89.9001 26.9474 92.1292 26.9474C94.1236 26.9474 95.8687 27.3873 97.3645 28.2672C98.8603 29.1471 100.019 30.4816 100.84 32.2707C101.661 34.0598 102.072 36.3475 102.072 39.1339C102.072 41.8908 101.676 44.1785 100.884 45.997C100.092 47.7861 98.9483 49.1206 97.4525 50.0005C95.986 50.8804 94.2116 51.3203 92.1292 51.3203ZM93.317 45.689C94.4315 45.689 95.4434 45.4251 96.3526 44.8971C97.2618 44.3692 97.9804 43.6213 98.5084 42.6534C99.0656 41.6562 99.3442 40.483 99.3442 39.1339C99.3442 37.7554 99.0656 36.5822 98.5084 35.6143C97.9804 34.6464 97.2618 33.8985 96.3526 33.3706C95.4434 32.8427 94.4315 32.5787 93.317 32.5787C92.1732 32.5787 91.1466 32.8427 90.2374 33.3706C89.3282 33.8985 88.595 34.6464 88.0377 35.6143C87.5098 36.5822 87.2458 37.7554 87.2458 39.1339C87.2458 40.483 87.5098 41.6562 88.0377 42.6534C88.595 43.6213 89.3282 44.3692 90.2374 44.8971C91.1466 45.4251 92.1732 45.689 93.317 45.689ZM99.5202 50.9683V46.129L99.6522 39.0899L99.2123 32.0947V18.3245H106.075V50.9683H99.5202ZM126.418 51.3203C124.335 51.3203 122.546 50.8804 121.05 50.0005C119.555 49.1206 118.411 47.7861 117.619 45.997C116.827 44.1785 116.431 41.8908 116.431 39.1339C116.431 36.3475 116.842 34.0598 117.663 32.2707C118.513 30.4816 119.687 29.1471 121.182 28.2672C122.678 27.3873 124.423 26.9474 126.418 26.9474C128.647 26.9474 130.641 27.446 132.401 28.4432C134.19 29.4404 135.598 30.8482 136.624 32.6667C137.68 34.4851 138.208 36.6408 138.208 39.1339C138.208 41.5975 137.68 43.7386 136.624 45.557C135.598 47.3755 134.19 48.798 132.401 49.8245C130.641 50.8217 128.647 51.3203 126.418 51.3203ZM112.428 50.9683V18.3245H119.291V32.0947L118.851 39.0899L118.983 46.129V50.9683H112.428ZM125.23 45.689C126.374 45.689 127.386 45.4251 128.266 44.8971C129.175 44.3692 129.893 43.6213 130.421 42.6534C130.979 41.6562 131.257 40.483 131.257 39.1339C131.257 37.7554 130.979 36.5822 130.421 35.6143C129.893 34.6464 129.175 33.8985 128.266 33.3706C127.386 32.8427 126.374 32.5787 125.23 32.5787C124.086 32.5787 123.06 32.8427 122.15 33.3706C121.241 33.8985 120.523 34.6464 119.995 35.6143C119.467 36.5822 119.203 37.7554 119.203 39.1339C119.203 40.483 119.467 41.6562 119.995 42.6534C120.523 43.6213 121.241 44.3692 122.15 44.8971C123.06 45.4251 124.086 45.689 125.23 45.689ZM152.789 51.3203C150.824 51.3203 149.064 50.939 147.51 50.1764C145.985 49.4139 144.797 48.2554 143.946 46.7009C143.096 45.1171 142.671 43.108 142.671 40.6737V27.2994H149.534V39.6618C149.534 41.6269 149.944 43.0787 150.766 44.0172C151.616 44.9264 152.804 45.3811 154.329 45.3811C155.385 45.3811 156.324 45.1611 157.145 44.7211C157.966 44.2519 158.611 43.548 159.081 42.6094C159.55 41.6415 159.784 40.439 159.784 39.0019V27.2994H166.648V50.9683H160.136V44.4572L161.324 46.3489C160.532 47.9914 159.359 49.2379 157.805 50.0885C156.28 50.9097 154.608 51.3203 152.789 51.3203ZM175.997 59.8552C174.766 59.8552 173.548 59.6646 172.346 59.2833C171.143 58.902 170.161 58.3741 169.398 57.6995L171.906 52.8161C172.434 53.2854 173.035 53.652 173.71 53.916C174.414 54.1799 175.103 54.3119 175.778 54.3119C176.745 54.3119 177.508 54.0773 178.065 53.608C178.652 53.1681 179.18 52.4202 179.649 51.3643L180.881 48.4607L181.409 47.7128L189.9 27.2994H196.499L185.808 52.4202C185.046 54.3266 184.166 55.8224 183.169 56.9076C182.201 57.9928 181.116 58.7554 179.913 59.1953C178.74 59.6352 177.435 59.8552 175.997 59.8552ZM180.045 51.8922L169.486 27.2994H176.569L184.752 47.0968L180.045 51.8922Z" fill="#202020"/>
<path d="M0 59.8722V69.9899L32.5885 53.0948V43.0011L0 59.8722Z" fill="#7F00FF"/>
<path d="M0 46.8309V56.949L32.5885 40.0538V29.9601L0 46.8309Z" fill="#419CF1"/>
<path d="M0 23.1587V13.0409L32.5885 29.936V40.0297L0 23.1587Z" fill="#419CF1"/>
<path d="M0 10.1178V0L32.5885 16.8951V26.9888L0 10.1178Z" fill="#E22D56"/>
</g>
<defs>
<clipPath id="clip0_6_118">
<rect width="196.508" height="70" fill="white"/>
</clipPath>
</defs>
</svg>
