<svg width="200" height="74" viewBox="0 0 200 74" fill="none" xmlns="http://www.w3.org/2000/svg">
<rect width="200" height="73.0667" rx="21" fill="white"/>
<path d="M57.008 49.6797L68.24 24.4797H74L85.268 49.6797H79.148L69.932 27.4317H72.236L62.984 49.6797H57.008ZM62.624 44.2797L64.172 39.8517H77.132L78.716 44.2797H62.624ZM95.6268 49.9677C93.8028 49.9677 92.1588 49.5597 90.6948 48.7437C89.2308 47.9037 88.0668 46.7397 87.2028 45.2517C86.3628 43.7637 85.9428 42.0117 85.9428 39.9957C85.9428 37.9557 86.3628 36.1917 87.2028 34.7037C88.0668 33.2157 89.2308 32.0637 90.6948 31.2477C92.1588 30.4317 93.8028 30.0237 95.6268 30.0237C97.2588 30.0237 98.6868 30.3837 99.9108 31.1037C101.135 31.8237 102.083 32.9157 102.755 34.3797C103.427 35.8437 103.763 37.7157 103.763 39.9957C103.763 42.2517 103.439 44.1237 102.791 45.6117C102.143 47.0757 101.207 48.1677 99.9828 48.8877C98.7828 49.6077 97.3308 49.9677 95.6268 49.9677ZM96.5988 45.3597C97.5108 45.3597 98.3388 45.1437 99.0828 44.7117C99.8268 44.2797 100.415 43.6677 100.847 42.8757C101.303 42.0597 101.531 41.0997 101.531 39.9957C101.531 38.8677 101.303 37.9077 100.847 37.1157C100.415 36.3237 99.8268 35.7117 99.0828 35.2797C98.3388 34.8477 97.5108 34.6317 96.5988 34.6317C95.6628 34.6317 94.8228 34.8477 94.0788 35.2797C93.3348 35.7117 92.7348 36.3237 92.2788 37.1157C91.8468 37.9077 91.6308 38.8677 91.6308 39.9957C91.6308 41.0997 91.8468 42.0597 92.2788 42.8757C92.7348 43.6677 93.3348 44.2797 94.0788 44.7117C94.8228 45.1437 95.6628 45.3597 96.5988 45.3597ZM101.675 49.6797V45.7197L101.783 39.9597L101.423 34.2357V22.9677H107.039V49.6797H101.675ZM123.685 49.9677C121.981 49.9677 120.517 49.6077 119.293 48.8877C118.069 48.1677 117.133 47.0757 116.485 45.6117C115.837 44.1237 115.513 42.2517 115.513 39.9957C115.513 37.7157 115.849 35.8437 116.521 34.3797C117.217 32.9157 118.177 31.8237 119.401 31.1037C120.625 30.3837 122.053 30.0237 123.685 30.0237C125.509 30.0237 127.141 30.4317 128.581 31.2477C130.045 32.0637 131.197 33.2157 132.037 34.7037C132.901 36.1917 133.333 37.9557 133.333 39.9957C133.333 42.0117 132.901 43.7637 132.037 45.2517C131.197 46.7397 130.045 47.9037 128.581 48.7437C127.141 49.5597 125.509 49.9677 123.685 49.9677ZM112.237 49.6797V22.9677H117.853V34.2357L117.493 39.9597L117.601 45.7197V49.6797H112.237ZM122.713 45.3597C123.649 45.3597 124.477 45.1437 125.197 44.7117C125.941 44.2797 126.529 43.6677 126.961 42.8757C127.417 42.0597 127.645 41.0997 127.645 39.9957C127.645 38.8677 127.417 37.9077 126.961 37.1157C126.529 36.3237 125.941 35.7117 125.197 35.2797C124.477 34.8477 123.649 34.6317 122.713 34.6317C121.777 34.6317 120.937 34.8477 120.193 35.2797C119.449 35.7117 118.861 36.3237 118.429 37.1157C117.997 37.9077 117.781 38.8677 117.781 39.9957C117.781 41.0997 117.997 42.0597 118.429 42.8757C118.861 43.6677 119.449 44.2797 120.193 44.7117C120.937 45.1437 121.777 45.3597 122.713 45.3597ZM145.264 49.9677C143.656 49.9677 142.216 49.6557 140.944 49.0317C139.696 48.4077 138.724 47.4597 138.028 46.1877C137.332 44.8917 136.984 43.2477 136.984 41.2557V30.3117H142.6V40.4277C142.6 42.0357 142.936 43.2237 143.608 43.9917C144.304 44.7357 145.276 45.1077 146.524 45.1077C147.388 45.1077 148.156 44.9277 148.828 44.5677C149.5 44.1837 150.028 43.6077 150.412 42.8397C150.796 42.0477 150.988 41.0637 150.988 39.8877V30.3117H156.604V49.6797H151.276V44.3517L152.248 45.8997C151.6 47.2437 150.64 48.2637 149.368 48.9597C148.12 49.6317 146.752 49.9677 145.264 49.9677ZM164.255 56.9517C163.247 56.9517 162.251 56.7957 161.267 56.4837C160.283 56.1717 159.479 55.7397 158.855 55.1877L160.907 51.1917C161.339 51.5757 161.831 51.8757 162.383 52.0917C162.959 52.3077 163.523 52.4157 164.075 52.4157C164.867 52.4157 165.491 52.2237 165.947 51.8397C166.427 51.4797 166.859 50.8677 167.243 50.0037L168.251 47.6277L168.683 47.0157L175.631 30.3117H181.031L172.283 50.8677C171.659 52.4277 170.939 53.6517 170.123 54.5397C169.331 55.4277 168.443 56.0517 167.459 56.4117C166.499 56.7717 165.431 56.9517 164.255 56.9517ZM167.567 50.4357L158.927 30.3117H164.723L171.419 46.5117L167.567 50.4357Z" fill="#262626"/>
<path d="M20.2383 56.8223V65.1016L46.9049 51.2766V43.017L20.2383 56.8223Z" fill="#7F00FF"/>
<path d="M20.2383 46.1504V54.4297L46.9049 40.6047V32.3451L20.2383 46.1504Z" fill="#419CF1"/>
<path d="M20.2383 26.7793V18.5L46.9049 32.325V40.5846L20.2383 26.7793Z" fill="#419CF1"/>
<path d="M20.2383 16.1074V7.82812L46.9049 21.6531V29.9127L20.2383 16.1074Z" fill="#E22D56"/>
</svg>
