<svg width="7700" height="2940" viewBox="0 0 7700 2940" fill="none" xmlns="http://www.w3.org/2000/svg">
<g filter="url(#filter0_d_444_49)">
<rect x="100" y="85" width="7500" height="2740" rx="777" fill="white"/>
</g>
<path d="M2219.85 1945L2641.05 1000H2857.05L3279.6 1945H3050.1L2704.5 1110.7H2790.9L2443.95 1945H2219.85ZM2430.45 1742.5L2488.5 1576.45H2974.5L3033.9 1742.5H2430.45ZM3668.05 1955.8C3599.65 1955.8 3538 1940.5 3483.1 1909.9C3428.2 1878.4 3384.55 1834.75 3352.15 1778.95C3320.65 1723.15 3304.9 1657.45 3304.9 1581.85C3304.9 1505.35 3320.65 1439.2 3352.15 1383.4C3384.55 1327.6 3428.2 1284.4 3483.1 1253.8C3538 1223.2 3599.65 1207.9 3668.05 1207.9C3729.25 1207.9 3782.8 1221.4 3828.7 1248.4C3874.6 1275.4 3910.15 1316.35 3935.35 1371.25C3960.55 1426.15 3973.15 1496.35 3973.15 1581.85C3973.15 1666.45 3961 1736.65 3936.7 1792.45C3912.4 1847.35 3877.3 1888.3 3831.4 1915.3C3786.4 1942.3 3731.95 1955.8 3668.05 1955.8ZM3704.5 1783C3738.7 1783 3769.75 1774.9 3797.65 1758.7C3825.55 1742.5 3847.6 1719.55 3863.8 1689.85C3880.9 1659.25 3889.45 1623.25 3889.45 1581.85C3889.45 1539.55 3880.9 1503.55 3863.8 1473.85C3847.6 1444.15 3825.55 1421.2 3797.65 1405C3769.75 1388.8 3738.7 1380.7 3704.5 1380.7C3669.4 1380.7 3637.9 1388.8 3610 1405C3582.1 1421.2 3559.6 1444.15 3542.5 1473.85C3526.3 1503.55 3518.2 1539.55 3518.2 1581.85C3518.2 1623.25 3526.3 1659.25 3542.5 1689.85C3559.6 1719.55 3582.1 1742.5 3610 1758.7C3637.9 1774.9 3669.4 1783 3704.5 1783ZM3894.85 1945V1796.5L3898.9 1580.5L3885.4 1365.85V943.3H4096V1945H3894.85ZM4720.22 1955.8C4656.32 1955.8 4601.42 1942.3 4555.52 1915.3C4509.62 1888.3 4474.52 1847.35 4450.22 1792.45C4425.92 1736.65 4413.77 1666.45 4413.77 1581.85C4413.77 1496.35 4426.37 1426.15 4451.57 1371.25C4477.67 1316.35 4513.67 1275.4 4559.57 1248.4C4605.47 1221.4 4659.02 1207.9 4720.22 1207.9C4788.62 1207.9 4849.82 1223.2 4903.82 1253.8C4958.72 1284.4 5001.92 1327.6 5033.42 1383.4C5065.82 1439.2 5082.02 1505.35 5082.02 1581.85C5082.02 1657.45 5065.82 1723.15 5033.42 1778.95C5001.92 1834.75 4958.72 1878.4 4903.82 1909.9C4849.82 1940.5 4788.62 1955.8 4720.22 1955.8ZM4290.92 1945V943.3H4501.52V1365.85L4488.02 1580.5L4492.07 1796.5V1945H4290.92ZM4683.77 1783C4718.87 1783 4749.92 1774.9 4776.92 1758.7C4804.82 1742.5 4826.87 1719.55 4843.07 1689.85C4860.17 1659.25 4868.72 1623.25 4868.72 1581.85C4868.72 1539.55 4860.17 1503.55 4843.07 1473.85C4826.87 1444.15 4804.82 1421.2 4776.92 1405C4749.92 1388.8 4718.87 1380.7 4683.77 1380.7C4648.67 1380.7 4617.17 1388.8 4589.27 1405C4561.37 1421.2 4539.32 1444.15 4523.12 1473.85C4506.92 1503.55 4498.82 1539.55 4498.82 1581.85C4498.82 1623.25 4506.92 1659.25 4523.12 1689.85C4539.32 1719.55 4561.37 1742.5 4589.27 1758.7C4617.17 1774.9 4648.67 1783 4683.77 1783ZM5529.45 1955.8C5469.15 1955.8 5415.15 1944.1 5367.45 1920.7C5320.65 1897.3 5284.2 1861.75 5258.1 1814.05C5232 1765.45 5218.95 1703.8 5218.95 1629.1V1218.7H5429.55V1598.05C5429.55 1658.35 5442.15 1702.9 5467.35 1731.7C5493.45 1759.6 5529.9 1773.55 5576.7 1773.55C5609.1 1773.55 5637.9 1766.8 5663.1 1753.3C5688.3 1738.9 5708.1 1717.3 5722.5 1688.5C5736.9 1658.8 5744.1 1621.9 5744.1 1577.8V1218.7H5954.7V1945H5754.9V1745.2L5791.35 1803.25C5767.05 1853.65 5731.05 1891.9 5683.35 1918C5636.55 1943.2 5585.25 1955.8 5529.45 1955.8ZM6241.61 2217.7C6203.81 2217.7 6166.46 2211.85 6129.56 2200.15C6092.66 2188.45 6062.51 2172.25 6039.11 2151.55L6116.06 2001.7C6132.26 2016.1 6150.71 2027.35 6171.41 2035.45C6193.01 2043.55 6214.16 2047.6 6234.86 2047.6C6264.56 2047.6 6287.96 2040.4 6305.06 2026C6323.06 2012.5 6339.26 1989.55 6353.66 1957.15L6391.46 1868.05L6407.66 1845.1L6668.21 1218.7H6870.71L6542.66 1989.55C6519.26 2048.05 6492.26 2093.95 6461.66 2127.25C6431.96 2160.55 6398.66 2183.95 6361.76 2197.45C6325.76 2210.95 6285.71 2217.7 6241.61 2217.7ZM6365.81 1973.35L6041.81 1218.7H6259.16L6510.26 1826.2L6365.81 1973.35Z" fill="#262626"/>
<path d="M841 2218.22V2528.69L1841 2010.25V1700.52L841 2218.22Z" fill="#7F00FF"/>
<path d="M841 1818.04V2128.52L1841 1610.08V1300.34L841 1818.04Z" fill="#419CF1"/>
<path d="M841 1091.64V781.172L1841 1299.61V1609.34L841 1091.64Z" fill="#419CF1"/>
<path d="M841 691.472V381L1841 899.437V1209.17L841 691.472Z" fill="#E22D56"/>
<defs>
<filter id="filter0_d_444_49" x="0" y="0" width="7700" height="2940" filterUnits="userSpaceOnUse" color-interpolation-filters="sRGB">
<feFlood flood-opacity="0" result="BackgroundImageFix"/>
<feColorMatrix in="SourceAlpha" type="matrix" values="0 0 0 0 0 0 0 0 0 0 0 0 0 0 0 0 0 0 127 0" result="hardAlpha"/>
<feOffset dy="15"/>
<feGaussianBlur stdDeviation="50"/>
<feComposite in2="hardAlpha" operator="out"/>
<feColorMatrix type="matrix" values="0 0 0 0 0 0 0 0 0 0 0 0 0 0 0 0 0 0 0.1 0"/>
<feBlend mode="normal" in2="BackgroundImageFix" result="effect1_dropShadow_444_49"/>
<feBlend mode="normal" in="SourceGraphic" in2="effect1_dropShadow_444_49" result="shape"/>
</filter>
</defs>
</svg>
