<svg width="277" height="102" viewBox="0 0 277 102" fill="none" xmlns="http://www.w3.org/2000/svg">
<g clip-path="url(#clip0_470_73)">
<path d="M248.303 0H28.6972C12.8482 0 0 12.8482 0 28.6972V72.5001C0 88.3492 12.8482 101.197 28.6972 101.197H248.303C264.152 101.197 277 88.3492 277 72.5001V28.6972C277 12.8482 264.152 0 248.303 0Z" fill="white"/>
<path d="M78.2969 68.6953L93.8532 33.7933H101.831L117.437 68.6953H108.961L96.1966 37.8819H99.3876L86.5736 68.6953H78.2969ZM86.075 61.2163L88.219 55.0836H106.169L108.362 61.2163H86.075ZM131.784 69.0942C129.257 69.0942 126.981 68.5291 124.953 67.399C122.925 66.2356 121.313 64.6234 120.116 62.5626C118.953 60.5017 118.371 58.0752 118.371 55.283C118.371 52.4576 118.953 50.0145 120.116 47.9536C121.313 45.8927 122.925 44.2972 124.953 43.167C126.981 42.0369 129.257 41.4718 131.784 41.4718C134.044 41.4718 136.022 41.9704 137.717 42.9676C139.412 43.9648 140.725 45.4772 141.656 47.5048C142.587 49.5325 143.052 52.1252 143.052 55.283C143.052 58.4076 142.603 61.0003 141.706 63.0612C140.808 65.0888 139.512 66.6012 137.817 67.5984C136.155 68.5956 134.144 69.0942 131.784 69.0942ZM133.13 62.7121C134.393 62.7121 135.54 62.413 136.57 61.8147C137.601 61.2163 138.415 60.3687 139.013 59.2718C139.645 58.1416 139.961 56.812 139.961 55.283C139.961 53.7207 139.645 52.3911 139.013 51.2942C138.415 50.1973 137.601 49.3497 136.57 48.7513C135.54 48.153 134.393 47.8539 133.13 47.8539C131.834 47.8539 130.67 48.153 129.64 48.7513C128.609 49.3497 127.778 50.1973 127.147 51.2942C126.548 52.3911 126.249 53.7207 126.249 55.283C126.249 56.812 126.548 58.1416 127.147 59.2718C127.778 60.3687 128.609 61.2163 129.64 61.8147C130.67 62.413 131.834 62.7121 133.13 62.7121ZM140.16 68.6953V63.2107L140.31 55.2331L139.811 47.3054V31.6992H147.589V68.6953H140.16ZM170.644 69.0942C168.284 69.0942 166.256 68.5956 164.561 67.5984C162.866 66.6012 161.569 65.0888 160.672 63.0612C159.774 61.0003 159.326 58.4076 159.326 55.283C159.326 52.1252 159.791 49.5325 160.722 47.5048C161.686 45.4772 163.015 43.9648 164.711 42.9676C166.406 41.9704 168.384 41.4718 170.644 41.4718C173.17 41.4718 175.43 42.0369 177.425 43.167C179.452 44.2972 181.048 45.8927 182.211 47.9536C183.408 50.0145 184.006 52.4576 184.006 55.283C184.006 58.0752 183.408 60.5017 182.211 62.5626C181.048 64.6234 179.452 66.2356 177.425 67.399C175.43 68.5291 173.17 69.0942 170.644 69.0942ZM154.788 68.6953V31.6992H162.567V47.3054L162.068 55.2331L162.218 63.2107V68.6953H154.788ZM169.298 62.7121C170.594 62.7121 171.741 62.413 172.738 61.8147C173.768 61.2163 174.583 60.3687 175.181 59.2718C175.813 58.1416 176.128 56.812 176.128 55.283C176.128 53.7207 175.813 52.3911 175.181 51.2942C174.583 50.1973 173.768 49.3497 172.738 48.7513C171.741 48.153 170.594 47.8539 169.298 47.8539C168.001 47.8539 166.838 48.153 165.807 48.7513C164.777 49.3497 163.963 50.1973 163.364 51.2942C162.766 52.3911 162.467 53.7207 162.467 55.283C162.467 56.812 162.766 58.1416 163.364 59.2718C163.963 60.3687 164.777 61.2163 165.807 61.8147C166.838 62.413 168.001 62.7121 169.298 62.7121ZM200.531 69.0942C198.304 69.0942 196.31 68.6621 194.548 67.7979C192.82 66.9336 191.474 65.6206 190.51 63.8589C189.546 62.064 189.064 59.787 189.064 57.0281V41.8707H196.842V55.8813C196.842 58.1084 197.307 59.7538 198.238 60.8175C199.202 61.8479 200.548 62.3631 202.277 62.3631C203.473 62.3631 204.537 62.1138 205.468 61.6152C206.398 61.0834 207.13 60.2856 207.661 59.2219C208.193 58.125 208.459 56.7622 208.459 55.1334V41.8707H216.237V68.6953H208.858V61.3161L210.204 63.46C209.307 65.3215 207.977 66.7342 206.215 67.6981C204.487 68.6289 202.592 69.0942 200.531 69.0942ZM226.834 78.7671C225.438 78.7671 224.058 78.551 222.695 78.1189C221.333 77.6868 220.219 77.0884 219.355 76.3239L222.197 70.7895C222.795 71.3213 223.477 71.7368 224.241 72.036C225.039 72.3351 225.82 72.4847 226.585 72.4847C227.681 72.4847 228.546 72.2188 229.177 71.6869C229.842 71.1883 230.44 70.3407 230.972 69.1441L232.368 65.8533L232.967 65.0057L242.59 41.8707H250.069L237.953 70.3407C237.088 72.5013 236.091 74.1966 234.961 75.4264C233.864 76.6563 232.634 77.5206 231.271 78.0192C229.942 78.5178 228.463 78.7671 226.834 78.7671ZM231.421 69.7424L219.455 41.8707H227.482L236.756 64.3077L231.421 69.7424Z" fill="#262626"/>
<path d="M27.3672 78.7884V90.255L64.3005 71.1073V59.668L27.3672 78.7884Z" fill="#7F00FF"/>
<path d="M27.3672 64.0071V75.4742L64.3005 56.3264V44.8867L27.3672 64.0071Z" fill="#419CF1"/>
<path d="M27.3672 37.1776V25.7109L64.3005 44.8586V56.2979L27.3672 37.1776Z" fill="#419CF1"/>
<path d="M27.3672 22.4004V10.9336L64.3005 30.0812V41.5207L27.3672 22.4004Z" fill="#E22D56"/>
</g>
<defs>
<clipPath id="clip0_470_73">
<rect width="277" height="101.197" fill="white"/>
</clipPath>
</defs>
</svg>
